<?xml version="1.0" standalone="no"?><!DOCTYPE svg PUBLIC "-//W3C//DTD SVG 1.1//EN" "http://www.w3.org/Graphics/SVG/1.1/DTD/svg11.dtd"><svg t="1499678397536" class="icon" style="" viewBox="0 0 1024 1024" version="1.1" xmlns="http://www.w3.org/2000/svg" p-id="3481" xmlns:xlink="http://www.w3.org/1999/xlink" width="16" height="16"><defs><style type="text/css"></style></defs><path d="M0 568.32l114.346667 0 0-112.64L0 455.68 0 568.32zM0 793.6l114.346667 0 0-112.64L0 680.96 0 793.6zM0 343.04l114.346667 0 0-112.64L0 230.4 0 343.04zM226.986667 568.32 1024 568.32l0-112.64L226.986667 455.68 226.986667 568.32zM226.986667 793.6 1024 793.6l0-112.64L226.986667 680.96 226.986667 793.6zM226.986667 230.4l0 112.64L1024 343.04l0-112.64L226.986667 230.4z" p-id="3482" fill="#ffffff"></path></svg>